<svg width="32" height="32" viewBox="0 0 32 32" fill="none" xmlns="http://www.w3.org/2000/svg">
<g clip-path="url(#clip0_16_1217)">
<path d="M24.0002 10.6667H22.6668V8C22.6668 4.32 19.6802 1.33333 16.0002 1.33333C12.3202 1.33333 9.3335 4.32 9.3335 8V10.6667H8.00016C6.5335 10.6667 5.3335 11.8667 5.3335 13.3333V26.6667C5.3335 28.1333 6.5335 29.3333 8.00016 29.3333H24.0002C25.4668 29.3333 26.6668 28.1333 26.6668 26.6667V13.3333C26.6668 11.8667 25.4668 10.6667 24.0002 10.6667ZM16.0002 22.6667C14.5335 22.6667 13.3335 21.4667 13.3335 20C13.3335 18.5333 14.5335 17.3333 16.0002 17.3333C17.4668 17.3333 18.6668 18.5333 18.6668 20C18.6668 21.4667 17.4668 22.6667 16.0002 22.6667ZM20.1335 10.6667H11.8668V8C11.8668 5.72 13.7202 3.86667 16.0002 3.86667C18.2802 3.86667 20.1335 5.72 20.1335 8V10.6667Z" fill="#797979"/>
</g>
<defs>
<clipPath id="clip0_16_1217">
<rect width="32" height="32" fill="white"/>
</clipPath>
</defs>
</svg>
