<svg width="19" height="18" viewBox="0 0 19 18" fill="none" xmlns="http://www.w3.org/2000/svg">
<path d="M8.5 14C8.5 14.55 8.95 15 9.5 15C10.05 15 10.5 14.55 10.5 14C10.5 13.45 10.05 13 9.5 13C8.95 13 8.5 13.45 8.5 14ZM8.5 0V4H10.5V2.08C13.89 2.57 16.5 5.47 16.5 9C16.5 12.87 13.37 16 9.5 16C5.63 16 2.5 12.87 2.5 9C2.5 7.32 3.09 5.78 4.08 4.58L9.5 10L10.91 8.59L4.11 1.79V1.81C1.92 3.45 0.5 6.05 0.5 9C0.5 13.97 4.52 18 9.5 18C14.47 18 18.5 13.97 18.5 9C18.5 4.03 14.47 0 9.5 0H8.5ZM15.5 9C15.5 8.45 15.05 8 14.5 8C13.95 8 13.5 8.45 13.5 9C13.5 9.55 13.95 10 14.5 10C15.05 10 15.5 9.55 15.5 9ZM3.5 9C3.5 9.55 3.95 10 4.5 10C5.05 10 5.5 9.55 5.5 9C5.5 8.45 5.05 8 4.5 8C3.95 8 3.5 8.45 3.5 9Z" fill="white"/>
</svg>
